<svg id="레이어_1" data-name="레이어 1" xmlns="http://www.w3.org/2000/svg" viewBox="0 0 1513.8459 252.0801"><defs><style>.cls-1{fill:#ee7300;}.cls-2{fill:#0066b5;}.cls-3{fill:#008e51;}.cls-4{fill:#ffdb00;}.cls-5{fill:#3e3a39;}</style></defs><title>1대지 3</title><path class="cls-1" d="M156.9333,63.4593a32.3822,32.3822,0,1,0-32.355,32.3278,32.4257,32.4257,0,0,0,32.355-32.3278"/><path class="cls-2" d="M190.4327,188.94s-30.3061,2.7682-68.4373-22.5627c-22.4292-14.901-29.96-19.3421-34.6164-21.9251A49.8168,49.8168,0,0,0,60.7457,137.88c-16.2579.8256-29.4554,13.2254-29.4554,29.4832A29.3883,29.3883,0,0,0,89.5886,172.63l.2126-.7984,2.0216-1.6484c1.4632.0791,3.3786,2.2342,8.5417,6.1468l5.1087,4.1224C146.98,215.15,180.48,219.1938,187.1849,220.0466c3.5665.5041,32.6226,4.5747,62.503-8.1957V161.1891c-8.6479,12.16-34.1123,26.7668-59.2552,27.75"/><path class="cls-3" d="M219.3819,102.5987l-1.5449-1.49-1.9154-.0518c-16.2306-.267-33.2323-.267-45.6594,12.1328a49.2544,49.2544,0,0,0-14.2089,30.5976l1.1443,1.7029a27.8211,27.8211,0,0,0,35.8153-10.1111l2.5012-.6648,1.0381,2.3677-1.0381,2.0489c-6.1468,9.1275-12.4,13.7294-21.2058,15.1408l-4.6319.3188c-7.4219,0-13.9937-2.7138-18.304-5.0024-9.4463-4.2042-25.5979-16.6557-25.5979-16.6557-29.7993-24.1075-55.0785-28.2572-55.9013-28.3907-28.7122-5.6672-51.2748.1608-69.8459,11.6015v18.3858c16.8409-14.5822,39.06-23.0694,68.0885-18.3858,0,0,23.4433,2.7137,51.8579,24.1593,24.6116,19.1051,39.2211,22.4292,39.2211,22.4292a48.1584,48.1584,0,0,0,47.5475-12.5034c12.3726-12.506,12.9039-29.802,12.7186-45.7411Z"/><path class="cls-4" d="M60.7457,137.9344a50.0464,50.0464,0,0,1,26.6333,6.5173c4.7108,2.583,12.2145,7.0241,34.6164,21.9251,38.104,25.2792,68.4373,22.5627,68.4373,22.5627,25.17-.9836,50.6073-15.6694,59.228-27.75V0H0V116.1428c18.5984-11.4407,41.161-17.2687,69.8983-11.6015.7977.1335,26.0769,4.2832,55.8489,28.3117,0,0,16.1789,12.6368,25.6252,16.7347a39.67,39.67,0,0,0,18.3585,5.0024l4.5774-.3188c8.7788-1.4114,15.0863-5.986,21.1786-15.1408l1.0653-2.0489-1.0653-2.3677-2.4222.6648a29.4681,29.4681,0,0,1-19.661,12.6913,29.0647,29.0647,0,0,1-16.2061-2.58l-1.1171-1.7029a49.1628,49.1628,0,0,1,14.1817-30.6248c12.4271-12.3726,29.456-12.3726,45.6866-12.16l1.8882.0545,1.5449,1.5422.079,1.8881c.2125,15.8846-.3188,33.26-12.7186,45.7411a48.2588,48.2588,0,0,1-47.5475,12.5034s-14.6095-3.2723-39.1938-22.4292c-28.4419-21.4728-51.8062-24.1593-51.8062-24.1593C39.0876,111.4047,16.95,119.9464,0,134.5286V252.08H249.6607V211.8509c-29.826,12.7186-58.9093,8.7543-62.4758,8.1957-6.6236-.8528-40.1229-5.0024-81.7117-39.6461l-5.0814-4.0706c-5.19-4.0188-7.1058-6.1468-8.569-6.1468l-1.9944,1.6484-.24.8529A29.3938,29.3938,0,0,1,31.29,167.3087c0-16.2034,13.2248-28.6032,29.4554-29.3743m63.8326-42.0683a32.42,32.42,0,1,1,32.355-32.4068,32.4645,32.4645,0,0,1-32.355,32.4068"/><path class="cls-5" d="M573.1316,36.93H702.0448V59.52H601.0427v40.6052c0,3.1933,1.5149,4.8144,4.6292,4.8144h98.3155V127.183H652.6881v35.0442h74.5546v22.6962H549.2093V162.2272h75.3552V127.183h-30.84c-6.7326,0-11.8135-1.6211-15.3533-4.8689-3.5366-3.3241-5.2395-8.22-5.2395-14.713Z"/><path class="cls-5" d="M763.5348,67.3447h61.1729V52.6289H763.5348V30.4123h88.8715V88.7357H791.6851v12.4l2.7955,2.741c4.8962,0,10.3236-.0545,16.3369-.188,6.04-.1308,12.1328-.3705,18.2251-.7166,6.2012-.3732,12.3207-.771,18.44-1.3051,6.065-.48,11.6805-1.1171,16.6556-1.7819,3.1143-.3187,5.403.24,6.8116,1.7819a9.4907,9.4907,0,0,1,2.6347,5.7735l-.8773,5.5883c-.7983,1.7819-2.3944,2.9807-4.79,3.7-5.7735,1.5149-12.1873,2.899-18.9444,4.2041-6.866,1.2506-13.89,2.3677-21.1812,3.3241q-10.8141,1.4795-21.8979,2.5557c-7.3429.6648-14.5795,1.2506-21.4973,1.6484-6.28.267-11.3618-1.1444-15.1675-4.2041-3.78-3.06-5.6945-8.0622-5.6945-14.8983Zm118.0583,70.3227h27.7253v77.295H808.289c-13.1436,0-19.7148-6.4383-19.7148-19.2358V137.6674H816.3v19.1569h65.2936Zm0,55.904V177.8176H816.3v12.9855l2.954,2.7683Zm27.7253-63.1951H881.38V24.9576h27.9384Z"/><path class="cls-5" d="M963.441,52.4709V30.1725h119.5208c7.9559,0,11.9448,3.6728,11.9448,11.122,0,3.3-.1308,7.2366-.4768,11.6287-.4278,4.4166-.7738,8.9668-1.1989,13.7539q-.6366,7.0256-1.596,14.2907c-.6109,4.7627-1.224,9.3128-1.7825,13.5169h27.9117v21.7916h-76.0172v27.9629h50.8465v71.1755h-27.9111V166.4313H962.0291V144.2392H1013.62V116.2763H939.7579V94.4847H1064.042q.6017-10.2991,1.1988-21.154c.2649-7.2121.4251-14.1545.4251-20.86Z"/><path class="cls-5" d="M1142.5876,74.287A50.1356,50.1356,0,0,1,1146.5,54.1983a42.7189,42.7189,0,0,1,10.6152-15.0863,45.8537,45.8537,0,0,1,15.9118-9.5525,61.0134,61.0134,0,0,1,39.8859,0,47.1713,47.1713,0,0,1,16.0977,9.5525,43.33,43.33,0,0,1,10.7235,15.0863A51.0706,51.0706,0,0,1,1243.62,74.287a51.3735,51.3735,0,0,1-3.8854,20.116,43.8141,43.8141,0,0,1-10.7235,15.0863,47.4518,47.4518,0,0,1-16.0977,9.5007,61.0134,61.0134,0,0,1-39.8859,0,46.1193,46.1193,0,0,1-15.9118-9.5007A43.1889,43.1889,0,0,1,1146.5,94.403a50.4306,50.4306,0,0,1-3.9126-20.116m120.96,93.0761h-96V145.0375h123.9386v70.3772h-27.939ZM1170.4742,74.287c0,8.0622,2.128,14.397,6.1986,18.9471,4.1768,4.6019,9.58,6.8906,16.3641,6.8906,6.6508,0,12.1061-2.2887,16.2034-6.8906,4.2041-4.55,6.1746-10.8849,6.1746-18.9471s-1.97-14.367-6.1746-18.9689c-4.0973-4.55-9.5526-6.8388-16.2034-6.8388-6.7843,0-12.1873,2.2887-16.3641,6.8388-4.0706,4.6019-6.1986,10.9067-6.1986,18.9689m121.0124-10.4816H1318.52V86.0493h-27.0332v48.9834h-27.939V24.9576h27.939Z"/><path class="cls-5" d="M1343.9814,31.4231h90.0409V53.7215h-62.1815v49.5147c0,2.4222,1.1716,3.5666,3.6189,3.5666,10.6173-.2125,21.3115-.8774,31.9021-1.8637,10.6424-.9836,21.9524-2.18,34.0307-3.8036,2.9289-.2125,5.2149.1853,6.8115,1.3842,1.6512,1.1961,2.4767,2.9535,2.8473,5.3729.346,3.2478,0,5.6155-1.3024,7.2121a9.1372,9.1372,0,0,1-5.2149,3.2723c-11.7623,3.1143-24.5054,5.8007-38.2348,8.1684a392.4525,392.4525,0,0,1-42.1467,5.057c-6.3327.3978-11.2833-.9591-14.8471-4.2041-3.5393-3.1688-5.324-8.1685-5.324-15.089ZM1491.3622,213.9h-104.568q-19.7163,0-19.7433-19.1323V148.4161H1395.15v40.3381l2.9535,2.9018h93.2587Zm-4.6286-142.539h27.085V93.6319h-27.085v64.443h-27.9117V24.9576h27.9117Z"/><path class="cls-5" d="M309.7661,77.562a116.6494,116.6494,0,0,0,10.6451-8.3837,132.06,132.06,0,0,0,9.4714-9.3918,84.5725,84.5725,0,0,0,7.7156-9.95,43.0629,43.0629,0,0,0,4.8961-9.6861H315.248V29.0554h39.8041l4.1251,1.5422.5313,4.55a51.8878,51.8878,0,0,1-4.2831,11.389,68.7255,68.7255,0,0,1-6.8388,10.8276L366.76,70.4562l1.8364,4.2831-2.0489,4.8172-4.7627,2.5557-4.4684-1.4659-15.3805-15.405a94.5739,94.5739,0,0,1-12.9311,11.1219A102.8585,102.8585,0,0,1,314.85,84.7987l-3.5665.7193L308.5972,83.6l-.6921-3.2723Zm23.8677,85.6488,2.0217,2.0217c2.2614,0,4.8444-.158,7.5854-.3706,2.7382-.3215,5.5337-.613,8.3809-.9318,2.82-.3733,5.5616-.7193,8.1685-1.1171,2.6074-.4523,4.9207-.8528,6.97-1.2506,2.875-.64,4.5774.346,5.2149,3.0325.7193,2.6865-.346,4.5229-3.1905,5.482-2.1824.6375-4.7621,1.3568-7.9042,2.1007-3.087.7193-6.332,1.49-9.7378,2.1552-3.4848.6648-6.9723,1.2778-10.5362,1.7819a83.8,83.8,0,0,1-10.2173.9863q-10.4585.6784-10.4572-9.6588V133.0655h13.7022Zm58.1927-57.5524V116.78H339.1158c-6.89,0-10.3231-3.3268-10.3231-9.7106V85.597h13.9414v18.5711l1.6239,1.49ZM340.6852,222.5451c-6.8116,0-10.2964-3.166-10.2964-9.6316v-26.606h59.44v36.2376Zm35.3629-10.9339v-14.5h-31.93v13.1708l1.6762,1.33ZM389.8293,90.6784H376.0481V59.1217H360.88V48.4793h15.168v-23.47h13.7812Zm0,57.7377h14.288V159.538h-14.288v21.6608H376.0481V130.4825h13.7812ZM423.8354,133.73H486.442v11.1219H437.6439v24.2656l2.21,2.21h47.414v11.04H463.081v21.98h34.0034v11.2009H415.2665V204.3473h33.9516v-21.98H434.6114c-7.2394,0-10.776-3.43-10.776-10.19ZM416.89,57.95h29.6412V41.4007H416.89V30.2788h42.97V68.6743H430.62V85.8367L432.029,87.3c2.3944,0,5.0291-.188,7.9308-.3188,2.9535-.267,5.8253-.4,8.727-.7466,2.9263-.2915,5.8007-.5858,8.5935-.9045,2.82-.3461,5.4008-.7193,7.8769-1.1171,2.6865-.3978,4.31.5858,5.0269,3.087.6921,2.4194-.346,4.0161-3.0325,5.0024-2.3949.7983-5.3484,1.5694-8.7,2.3677-3.3813.7193-6.8388,1.33-10.4838,1.9944-3.5917.5586-7.2645,1.1171-10.91,1.5694-3.6183.4523-6.97.7738-10.1111.9318-6.7571.4006-10.0566-2.6347-10.0566-9.152Zm71.2818,9.6861v47.7083H474.3883V25.0094h13.7839V56.3017H502.7V67.6362Z"/></svg>